# xmcd
#
# Track frame offsets: 
#        150
#        16871
#        28814
#        43772
#        54475
#        66377
#        78955
#        87420
#        99270
#        114118
#        124771
#        144856
#        159983
#        168303
#
# Disc length: 2437 seconds
#
# Revision: 0
# Processed by: cddbd v1.5.2PL0 Copyright (c) Steve Scherf et al.
# Submitted via: ExactAudioCopy v0.99pb5
#
DISCID=a709830e
DTITLE=Hugo Díaz - Antologia Vol4 1967-1968 CD1
DYEAR=1967
DGENRE=Tango
TTITLE0=Del Antigal
TTITLE1=Chacarera del rancho
TTITLE2=La siete de abril
TTITLE3=La Huaico Hondo
TTITLE4=Galopera
TTITLE5=Tendrás un altar
TTITLE6=El gato de la fiesta
TTITLE7=La Quebrada de Lules 
TTITLE8=Zamba del carnaval
TTITLE9=Agua clara de corre
TTITLE10=Selección de guaranias
TTITLE11=Zamba para no murir
TTITLE12=Canción del Iguazú
TTITLE13=Zamba del ángel
EXTD=
EXTT0=
EXTT1=
EXTT2=
EXTT3=
EXTT4=
EXTT5=
EXTT6=
EXTT7=
EXTT8=
EXTT9=
EXTT10=
EXTT11=
EXTT12=
EXTT13=
PLAYORDER=
